<svg width="25" height="25" viewBox="0 0 25 25" fill="none" xmlns="http://www.w3.org/2000/svg">
    <path d="M2.34375 21.0938H16.4062" stroke="#006885" stroke-width="2" stroke-linecap="round"
        stroke-linejoin="round" />
    <path
        d="M1.65039 13.7109L5.33204 17.1582C5.82294 17.6184 6.44927 17.9078 7.11788 17.9835C7.78648 18.0591 8.46165 17.917 9.04297 17.5781L23.8281 8.98437L22.0117 6.75781C21.5392 6.18072 20.8759 5.79167 20.1416 5.66093C19.4073 5.53019 18.6505 5.66638 18.0078 6.04492L13.6719 8.59374L7.8125 6.64062L6.20118 7.33398C6.08063 7.38564 5.97502 7.46682 5.8941 7.57003C5.81318 7.67325 5.75954 7.79517 5.73814 7.92457C5.71673 8.05396 5.72825 8.18667 5.77163 8.31044C5.815 8.43421 5.88884 8.54508 5.98633 8.63281L8.98438 11.3281L6.25 12.8906L3.51563 11.7187L1.875 12.4219C1.75564 12.4731 1.65095 12.5534 1.5704 12.6553C1.48986 12.7572 1.436 12.8776 1.4137 13.0056C1.3914 13.1336 1.40136 13.2651 1.44269 13.3882C1.48402 13.5114 1.55541 13.6223 1.65039 13.7109V13.7109Z"
        stroke="#006885" stroke-width="2" stroke-linecap="round" stroke-linejoin="round" />
</svg>
