<svg width="28" height="27" viewBox="0 0 28 27" fill="none" xmlns="http://www.w3.org/2000/svg">
    <path d="M21.0938 14.3438H26.1562" stroke="white" stroke-width="2" stroke-linecap="round"
        stroke-linejoin="round" />
    <path d="M23.625 11.8125V16.875" stroke="white" stroke-width="2" stroke-linecap="round"
        stroke-linejoin="round" />
    <path
        d="M11.3906 16.875C14.8856 16.875 17.7188 14.0418 17.7188 10.5469C17.7188 7.05195 14.8856 4.21875 11.3906 4.21875C7.8957 4.21875 5.0625 7.05195 5.0625 10.5469C5.0625 14.0418 7.8957 16.875 11.3906 16.875Z"
        stroke="white" stroke-width="2" stroke-miterlimit="10" />
    <path
        d="M2.34131 21.0937C3.45005 19.7723 4.83477 18.7097 6.39812 17.9806C7.96148 17.2516 9.66554 16.8738 11.3905 16.8738C13.1155 16.8738 14.8196 17.2516 16.3829 17.9806C17.9463 18.7097 19.331 19.7723 20.4397 21.0937"
        stroke="white" stroke-width="2" stroke-linecap="round" stroke-linejoin="round" />
</svg>
