<svg width="30" height="30" viewBox="0 0 30 30" fill="none" xmlns="http://www.w3.org/2000/svg">
    <path
        d="M6.58593 13.125C6.58593 12.02 6.80357 10.9259 7.22641 9.90508C7.64926 8.88424 8.26904 7.95668 9.05035 7.17536C9.83167 6.39404 10.7592 5.77427 11.7801 5.35142C12.8009 4.92857 13.895 4.71094 15 4.71094C16.1049 4.71094 17.1991 4.92857 18.2199 5.35142C19.2408 5.77427 20.1683 6.39404 20.9496 7.17536C21.731 7.95668 22.3507 8.88424 22.7736 9.90508C23.1964 10.9259 23.4141 12.02 23.4141 13.125V13.125C23.4141 17.3203 24.293 19.7578 25.0664 21.0938C25.1485 21.236 25.1919 21.3974 25.192 21.5617C25.1921 21.726 25.1491 21.8874 25.0672 22.0298C24.9853 22.1722 24.8675 22.2906 24.7254 22.3732C24.5833 22.4557 24.4221 22.4994 24.2578 22.5H5.74218C5.5779 22.4994 5.41665 22.4557 5.27459 22.3732C5.13253 22.2906 5.01465 22.1722 4.93276 22.0298C4.85087 21.8874 4.80784 21.726 4.80798 21.5617C4.80813 21.3974 4.85144 21.236 4.93359 21.0938C5.70703 19.7578 6.58593 17.3203 6.58593 13.125Z"
        stroke="#E6F0F3" stroke-width="2" stroke-linecap="round" stroke-linejoin="round" />
    <path
        d="M11.25 22.5V23.4375C11.25 24.4321 11.6451 25.3859 12.3483 26.0891C13.0516 26.7924 14.0054 27.1875 15 27.1875C15.9946 27.1875 16.9484 26.7924 17.6516 26.0891C18.3549 25.3859 18.75 24.4321 18.75 23.4375V22.5"
        stroke="#E6F0F3" stroke-width="2" stroke-linecap="round" stroke-linejoin="round" />
    <path d="M21.4922 2.8125C23.401 4.01743 24.9416 5.72423 25.9453 7.74609" stroke="#E6F0F3"
        stroke-width="2" stroke-linecap="round" stroke-linejoin="round" />
    <path d="M4.05469 7.74609C5.05843 5.72423 6.599 4.01743 8.50781 2.8125" stroke="#E6F0F3"
        stroke-width="2" stroke-linecap="round" stroke-linejoin="round" />
</svg>
