<svg width="51" height="51" viewBox="0 0 51 51" fill="none" xmlns="http://www.w3.org/2000/svg">
    <rect x="-1.90735e-06" width="51" height="51" rx="25.5" fill="#E6F0F3" />
    <path d="M22 21H30" stroke="#006885" stroke-width="2" stroke-linecap="round"
        stroke-linejoin="round" />
    <path d="M22 25H30" stroke="#006885" stroke-width="2" stroke-linecap="round"
        stroke-linejoin="round" />
    <path d="M22 29H26" stroke="#006885" stroke-width="2" stroke-linecap="round"
        stroke-linejoin="round" />
    <path
        d="M29.5875 36H16C15.7348 36 15.4805 35.8946 15.2929 35.7071C15.1054 35.5196 15 35.2652 15 35V15C15 14.7348 15.1054 14.4804 15.2929 14.2929C15.4805 14.1054 15.7348 14 16 14H36C36.2653 14 36.5196 14.1054 36.7072 14.2929C36.8947 14.4804 37 14.7348 37 15V28.5875C37.0005 28.7174 36.9753 28.846 36.926 28.9661C36.8767 29.0863 36.8041 29.1955 36.7125 29.2875L30.2875 35.7125C30.1955 35.8041 30.0863 35.8766 29.9662 35.926C29.8461 35.9753 29.7174 36.0005 29.5875 36V36Z"
        stroke="#006885" stroke-width="2" stroke-linecap="round" stroke-linejoin="round" />
    <path d="M36.9125 29H30V35.9125" stroke="#006885" stroke-width="2" stroke-linecap="round"
        stroke-linejoin="round" />
</svg>
