<svg width="37" height="37" viewBox="0 0 37 37" fill="none" xmlns="http://www.w3.org/2000/svg">
    <path
        d="M35.5459 11.2986C34.1404 7.97726 31.7961 5.15478 28.8445 3.16047C25.8928 1.16564 22.3275 -0.00057791 18.5003 2.14842e-07C15.9489 2.14842e-07 13.5125 0.517639 11.2987 1.45413C7.97733 2.8597 5.15492 5.20399 3.16061 8.15561C1.16564 11.1073 -0.00057791 14.6725 2.14842e-07 18.4997C2.14842e-07 21.0511 0.517639 23.4875 1.45413 25.7013C2.8597 29.0227 5.20341 31.8451 8.15568 33.8394C11.1073 35.8343 14.6726 37.0005 18.5003 36.9999C21.0512 36.9999 23.4875 36.4823 25.7014 35.5459C29.0227 34.1403 31.8452 31.7966 33.8395 28.8443C35.8344 25.8927 37.0006 22.3274 37 18.4997C37 15.9489 36.4824 13.5125 35.5459 11.2986ZM17.4458 9.25976C17.7286 9.15988 18.1989 9.48161 18.0848 9.78527C17.8952 10.2899 18.5539 10.5394 18.7706 10.8312C18.9603 11.0858 19.3188 11.8941 18.5431 11.7394C18.175 11.6661 18.047 12.1176 17.5587 11.8343C17.6795 11.6622 18.1644 10.5462 17.798 10.5636C17.5751 10.5744 17.2257 9.48038 17.4458 9.25976ZM16.8966 10.282C17.0292 10.2437 16.7244 10.3311 16.8966 10.282C17.5108 10.1059 17.5368 11.127 17.2494 11.3568C16.6493 11.8349 16.624 11.3331 16.7261 10.9261C16.7718 10.7466 16.2604 10.4644 16.8966 10.282ZM3.50091 12.1645C3.92829 11.1553 4.45655 10.199 5.06965 9.30485C5.34397 9.28006 5.50483 9.15475 5.8791 8.81431C6.23305 9.24783 6.58636 9.68135 6.9409 10.1149C7.04929 10.2476 6.70603 10.4118 6.87311 10.5625C7.0842 10.7527 7.23437 10.7612 7.45507 10.4993C7.60018 10.7617 7.74463 11.0248 7.88974 11.2873C7.45398 11.4668 7.09381 11.67 6.62365 11.661C5.87794 11.6452 5.51047 11.5757 4.92794 12.0747C5.17176 12.4592 5.4416 12.2164 5.77012 12.0747C5.62053 12.515 5.83617 13.1473 6.3408 13.2167C6.11837 13.4306 5.89543 13.644 5.67357 13.8579C5.57146 13.9562 5.29541 13.5988 5.60702 13.3798C5.49356 13.2929 5.25761 13.1947 5.11821 13.162C5.07355 13.6818 4.57687 13.3776 4.35726 13.7055C4.11791 14.0623 4.58359 14.2853 4.06256 14.4343C3.1893 14.6838 3.4371 15.5819 2.77103 16.0978C2.70223 16.1514 2.52836 16.257 2.3607 16.375C2.55257 14.9 2.94208 13.4877 3.50091 12.1645ZM5.29317 19.9753C5.24518 19.9476 5.19662 19.9194 5.14806 19.8912C5.11424 19.732 5.55173 19.798 5.60868 19.8437C5.74252 19.9504 5.32923 19.9685 5.29317 19.9753ZM3.66293 19.7399C3.73238 19.7636 3.7933 19.7523 3.84641 19.7055C3.77863 19.6507 3.70585 19.6033 3.62904 19.5638C3.5658 19.312 4.97137 19.7569 4.77213 19.8692C4.6276 19.9511 3.3446 19.9619 3.41065 19.8274C3.47497 19.7468 3.55966 19.7174 3.66242 19.74C3.57715 19.7077 3.62795 19.7269 3.66293 19.7399ZM2.22911 18.8463C2.76539 18.9981 3.28924 19.2132 3.37278 19.2685C3.39482 19.2837 3.17528 19.3723 3.24574 19.396C3.31692 19.4124 3.38348 19.4384 3.44779 19.4723C3.51103 19.5247 2.57569 19.737 2.63047 19.5225C2.67672 19.4626 2.72926 19.4085 2.78743 19.3588C2.77666 19.3735 2.51528 19.2301 2.23416 19.098C2.23135 19.0145 2.23135 18.9298 2.22911 18.8463ZM2.52156 19.7946C2.61811 19.7748 3.17803 19.9233 2.93247 20.0481C2.84951 20.0362 2.76655 20.0238 2.68409 20.0114C2.51759 19.9798 2.46339 19.9075 2.52156 19.7946ZM12.0963 26.4177C11.7423 26.7942 11.7559 26.9523 11.7085 27.4265C11.6458 28.0502 11.5686 29.2734 10.8669 29.3203C9.71192 29.3971 9.38225 30.3477 9.0543 31.2491C9.00242 31.3936 8.94367 31.5184 8.88101 31.6296C7.36878 30.5193 6.05297 29.1561 5.00194 27.5998C3.87243 25.9267 3.04773 24.0345 2.60178 21.999C2.76546 22.0735 2.83093 22.2384 2.83151 22.4083C2.83151 22.4099 2.83151 22.4122 2.83151 22.4145C2.8417 22.401 2.85016 22.3869 2.86259 22.3739C2.97496 22.2328 3.86961 20.9012 3.79626 21.8071C4.30205 21.9115 4.2326 21.5237 4.60231 21.4622C4.9997 21.3962 5.09285 21.9759 5.48402 21.8518C6.1704 21.6333 6.22012 21.7394 6.59771 22.3062C6.98548 22.8876 7.92877 22.6494 8.45031 23.0157C8.87032 23.3109 8.94648 23.6502 9.0069 24.1441C9.03176 24.3506 9.85819 24.379 10.0523 24.379C10.2595 24.379 10.2278 24.6725 10.3164 24.7836C10.3887 24.8746 10.6828 24.8412 10.777 24.8536C11.2534 24.9135 11.7943 25.0438 12.1838 25.3368C12.6303 25.6726 12.4101 26.083 12.0963 26.4177ZM14.1138 6.70264C14.2283 6.67836 14.4275 6.89963 14.493 6.8562C14.7245 6.7009 14.6731 6.69079 15.0112 6.67163C15.1033 6.66658 16.5032 6.7749 16.121 7.1587C16.1205 7.15928 16.1205 7.15928 16.1205 7.15928C16.1205 7.15986 16.1205 7.15986 16.1199 7.15986C15.5814 7.69723 15.162 7.5183 14.531 7.5183C14.2593 7.5183 13.5843 6.81212 14.1138 6.70264ZM30.045 28.8032C29.8153 29.5975 29.887 29.7984 29.117 30.066C28.8754 29.3153 28.9539 28.858 28.9539 28.0824C28.9539 28.0559 30.0055 27.0799 30.1223 26.9405C30.4949 27.6522 30.2624 28.0519 30.045 28.8032ZM34.7647 19.1144C34.6027 18.91 34.4576 18.6679 34.3075 18.5172C33.9829 18.1927 33.0983 18.4494 32.592 18.3812C32.1455 18.3214 32.0337 18.3969 31.8762 17.9775C31.7927 17.7546 31.4901 17.9922 31.2829 18.012C30.6546 18.0712 30.3753 17.0484 29.7961 17.3758C29.9824 17.6676 30.5451 18.5494 30.7777 18.6268C31.2485 18.7837 31.1361 18.1328 31.6984 18.3C31.6537 18.4709 31.7187 18.6725 31.6713 18.843C33.3145 18.4276 31.8982 20.5144 31.1723 20.3592C30.9736 20.3163 31.0498 20.6121 30.8398 20.673C30.5181 20.7673 30.1963 20.861 29.874 20.9547C29.4658 21.0738 29.104 21.3708 28.8737 20.9762C28.3369 20.0567 27.9875 18.9238 27.3112 18.1825C27.1944 18.0544 26.9917 17.8614 26.8449 17.6497C26.8506 17.6666 26.8556 17.6847 26.8619 17.7016C26.7315 17.6067 26.5384 17.5955 26.3996 17.512C26.2318 17.9777 26.8686 18.5975 27.135 18.9779C27.4783 19.4679 27.5601 20.1453 27.9214 20.6093C28.0766 20.8091 28.3566 20.9084 28.4977 21.1206C28.6174 21.3001 28.8703 21.8906 29.0628 21.968C29.3574 22.0865 30.3131 21.6451 30.6387 21.5604C30.4655 21.977 30.0839 23.391 29.6831 23.5705C28.9171 23.9138 28.7236 24.2231 28.2296 24.9202C28.1907 24.9744 27.8283 25.3723 27.8237 25.3543C27.9152 25.7116 28.0066 26.0689 28.0975 26.4262C28.1652 26.6909 28.2663 27.8815 28.0625 27.9413C27.1226 28.2202 27.0532 28.4843 27.0301 29.4378C27.0205 29.8301 26.5633 30.3838 26.2709 30.7197C25.8419 31.2125 25.5088 31.8752 24.8461 31.9672C24.2325 32.0524 23.6179 32.132 23.0025 32.2122C23.0025 31.7149 23.0483 31.5331 22.7356 31.1583C22.3681 30.7174 22.3145 30.5904 22.241 30.0209C22.1586 29.3774 21.3796 28.4866 21.5597 27.921C21.9143 26.8095 21.8143 26.4116 21.5191 25.2668C21.4305 24.9219 20.9998 24.7362 20.9111 24.4139C20.8418 24.1638 20.9925 23.5502 20.9925 23.2725C20.459 23.317 20.3665 23.3481 19.9527 23.01C19.6135 22.7329 19.2883 22.9846 18.887 23.1144C18.5539 23.2223 18.0475 23.0829 17.6999 23.0586C17.4204 23.0388 17.0072 23.3544 16.7532 23.2725C16.2175 23.0998 15.438 21.7134 15.0688 21.2748C14.7216 20.8639 14.9338 19.8913 14.9079 19.3279C14.8729 18.5783 15.8286 17.8637 16.3665 17.5228C16.5144 17.429 16.5912 16.9159 16.7927 16.7206C17.0784 16.4435 17.2624 16.1336 17.6632 16.1121C18.3688 16.0748 19.1737 15.7266 19.9053 15.6233C20.3123 15.5657 20.7199 15.5081 21.1274 15.4506C21.2957 15.4268 21.5954 16.0568 21.1822 16.1805C21.4272 16.6653 22.2541 16.5152 22.3247 16.7269C22.4641 17.1452 23.0021 17.0814 23.4108 17.1582C23.3543 16.1302 24.1971 16.8708 24.6932 17.0102C25.0692 17.1152 25.3204 16.8878 25.6935 16.8872C26.0034 16.8866 26.3675 17.0368 26.6718 17.1046C26.6723 17.1085 26.6735 17.1113 26.6745 17.1152C26.6796 17.0915 26.6859 17.0678 26.6955 17.0441C26.8987 16.5361 26.9974 16.234 26.9974 15.691C26.6745 15.7294 25.6568 16.0376 25.3949 15.8812C25.2385 15.7881 25.0877 15.3021 25.002 15.1407C24.853 14.8584 25.0517 14.8618 25.3102 14.693C26.2004 14.1128 27.2278 14.5135 28.1931 14.3053C28.1208 13.9548 27.9351 13.7865 27.6771 13.5715C27.2905 13.2497 27.3683 13.2063 27.4593 12.7022C27.2058 12.7745 26.9523 12.8467 26.6983 12.9195C26.792 13.0301 26.7949 13.2181 26.8885 13.327C26.2506 13.7713 26.429 12.9539 25.9921 12.893C25.6026 12.8376 25.5004 13.4822 25.3029 13.7159C25.0206 14.0513 25.4237 14.316 24.9732 14.482C24.6588 14.5977 24.4499 14.885 24.0903 14.7676C24.3551 14.9138 24.5154 15.1271 24.4431 15.4195C24.3381 15.3619 24.1925 15.3732 24.0903 15.3111C24.1429 15.4545 24.1119 15.6323 24.1716 15.7723C23.7392 15.5775 23.3096 14.8674 23.234 14.4135C23.1692 14.0252 22.2017 13.5093 21.8618 13.2185C21.3142 13.8175 22.8219 14.1313 22.962 14.645C22.9518 14.6066 22.6713 15.4878 22.6499 15.5008C22.271 15.7356 22.3433 14.9458 22.2192 14.8324C21.8472 14.4948 21.0868 13.4342 20.6832 13.761C20.1289 14.2104 20.3496 13.6843 19.9014 13.8243C19.4798 13.9558 19.6734 14.3616 19.4131 14.4395C18.7149 14.649 19.241 14.8634 18.8238 15.2112C18.4107 15.5555 18.3457 15.5545 17.81 15.5437C16.7883 15.5245 16.5907 15.2818 16.6929 14.2566C16.7799 13.3924 17.7417 13.7498 18.453 13.761C18.7132 13.7655 18.6127 13.0938 18.4744 12.9556C18.2345 12.7162 17.9094 12.7839 17.7316 12.4577C18.7798 12.2703 19.0451 11.7317 19.8782 11.1532C20.0121 11.0605 20.804 10.7682 20.7978 10.6835C20.7826 10.4482 20.5963 9.5551 21.1557 9.65844C21.6772 9.7555 20.9169 10.5362 21.3403 10.5593C21.5784 10.5729 22.2085 10.8862 22.2654 10.8241C22.6013 10.4577 22.9998 10.5954 23.4881 10.6079C23.6569 10.6124 23.8827 9.8024 23.9544 9.63135C24.5527 10.2359 24.4404 9.44851 24.3614 9.08776C24.5855 9.09622 25.4164 9.2294 25.5575 8.92517C25.8167 8.368 24.9242 8.57121 24.6742 8.64008C24.379 8.72029 23.823 8.78743 23.7095 8.32738C23.6728 8.17671 24.0205 7.44004 24.1627 7.36495C24.5686 7.14989 24.7132 6.93201 24.3034 6.59727C23.8461 6.22243 23.8439 7.17981 23.7914 7.24022C23.3375 7.76176 22.1431 8.03326 23.1394 8.87104C22.8227 8.94215 22.7048 9.10077 22.6952 9.38297C22.6759 9.90509 22.7144 9.86953 22.2018 9.96442C21.7157 10.0541 21.6373 9.20006 21.481 8.78909C21.1248 9.16559 20.3965 9.82039 20.0957 8.95227C19.8191 8.15127 20.5117 7.91583 21.0513 7.67035C21.5103 7.46208 21.9652 6.5284 22.2762 6.1248C22.4591 5.88828 22.3073 5.75502 22.5822 5.5281C22.856 5.30292 23.0852 5.2764 23.4368 5.19734C23.7326 5.13071 23.9555 4.7954 24.2445 4.78919C24.6601 4.78138 25.0772 4.81238 25.4921 4.83211C25.9984 4.85697 25.6185 5.07883 25.8709 5.16121C26.248 5.28479 26.6245 5.40843 27.001 5.5315C27.4142 5.667 28.2846 6.03447 27.9781 6.45614C27.6484 6.90881 26.7983 6.35056 26.4811 6.18066C26.2231 6.64128 26.7108 6.55153 26.9434 6.80554C27.0032 6.87102 26.8293 7.14765 26.8887 7.21312C26.9841 7.31762 27.203 7.39487 27.3244 7.46547C27.6936 7.67887 27.5468 6.88012 27.4057 7.02292C27.6027 6.8231 27.7427 6.8231 28.0571 7.02292C28.1035 6.60183 28.5816 6.45108 28.927 6.64244C28.9326 6.4341 28.9378 6.22467 28.9434 6.01582C30.1124 6.99466 31.1426 8.13379 31.9984 9.40046C33.7539 11.9993 34.7773 15.1248 34.7778 18.4999C34.7777 18.7057 34.7726 18.9107 34.7647 19.1144Z"
        fill="white" />
</svg>
