<svg width="25" height="26" viewBox="0 0 25 26" fill="none" xmlns="http://www.w3.org/2000/svg">
<path fill-rule="evenodd" clip-rule="evenodd" d="M2.09375 5.71875C2.09375 3.99287 3.49286 2.59375 5.21875 2.59375H19.8021C21.528 2.59375 22.9271 3.99287 22.9271 5.71875V6.93914C22.9271 7.76794 22.5978 8.56279 22.0118 9.14884L15.9405 15.2201C15.7452 15.4155 15.6354 15.6804 15.6354 15.9567V18.3975C15.6354 19.2263 15.3061 20.0212 14.7201 20.6072L12.4263 22.9009C11.3042 24.0231 9.38541 23.2283 9.38541 21.6414V15.9567C9.38541 15.6804 9.27566 15.4155 9.08032 15.2201L3.00904 9.14884C2.42299 8.56279 2.09375 7.76794 2.09375 6.93914V5.71875Z" fill="#327DFF"/>
</svg>
