<svg width="31" height="31" viewBox="0 0 31 31" fill="none" xmlns="http://www.w3.org/2000/svg">
    <path
        d="M24.9369 4.70487L22.6377 6.86722L24.8274 12.889L23.1851 14.5313L19.9142 9.74123L18.2582 11.2467V12.889L16.6159 14.5313L15.6443 11.6641L12.7839 10.6992L14.4262 9.05695H16.0685L17.7108 7.41465L12.7839 4.13007L14.4262 2.48778L20.448 4.6775L22.6172 2.38514L22.5693 2.41935C22.8778 2.11083 23.2962 1.9375 23.7325 1.9375C24.1689 1.9375 24.5873 2.11083 24.8958 2.41935C25.2044 2.72787 25.3777 3.14632 25.3777 3.58264C25.3777 4.01896 25.2044 4.43741 24.8958 4.74593L24.9369 4.70487Z"
        stroke="#006885" stroke-width="2" stroke-linecap="round" stroke-linejoin="round" />
    <path
        d="M13.867 27.9127C13.4693 28.3103 12.6869 28.1727 12.1194 27.6052C11.552 27.0377 11.4143 26.2553 11.812 25.8576C12.2096 25.46 12.992 25.5977 13.5595 26.1651C14.127 26.7326 14.2646 27.515 13.867 27.9127Z"
        stroke="#006885" stroke-linecap="round" stroke-linejoin="round" />
    <path
        d="M13.54 13.5708L7.78283 19.3281C7.51609 19.5948 7.40461 19.995 7.47293 20.4405C7.54124 20.8861 7.78375 21.3405 8.1471 21.7039C8.51045 22.0672 8.96488 22.3097 9.41043 22.378C9.85597 22.4464 10.2561 22.3349 10.5229 22.0681L13.5401 19.0509C13.8735 18.7175 14.3737 18.5781 14.9307 18.6635C15.4876 18.7489 16.0556 19.052 16.5098 19.5062C16.964 19.9604 17.2672 20.5285 17.3525 21.0854C17.4379 21.6423 17.2986 22.1425 16.9652 22.4759L13.6965 25.7446"
        stroke="#006885" stroke-width="2" stroke-linecap="round" stroke-linejoin="round" />
</svg>
