<svg width="22" height="22" viewBox="0 0 22 22" fill="none" xmlns="http://www.w3.org/2000/svg">
    <path
        d="M15.3528 9.06329L13.4113 10.8893L15.2604 15.9743L13.8736 17.3611L11.1115 13.3162L9.71308 14.5875V15.9743L8.32625 17.3611L7.50572 14.94L5.09033 14.1252L6.47716 12.7384H7.86398L9.2508 11.3515L5.09033 8.5779L6.47716 7.19107L11.5622 9.04017L13.3939 7.1044L13.3535 7.13329C13.614 6.87276 13.9674 6.72639 14.3358 6.72639C14.7043 6.72639 15.0576 6.87276 15.3182 7.13329C15.5787 7.39382 15.7251 7.74718 15.7251 8.11562C15.7251 8.48407 15.5787 8.83743 15.3182 9.09796L15.3528 9.06329Z"
        fill="#006885" stroke="#006885" stroke-width="2" stroke-linecap="round"
        stroke-linejoin="round" />
    <path
        d="M10.8167 20.6333C16.2383 20.6333 20.6333 16.2383 20.6333 10.8167C20.6333 5.39507 16.2383 1 10.8167 1C5.39507 1 1 5.39507 1 10.8167C1 16.2383 5.39507 20.6333 10.8167 20.6333Z"
        stroke="#FB4E4E" stroke-width="2" stroke-miterlimit="10" />
    <path d="M3.87329 3.87341L17.7598 17.7599" stroke="#FB4E4E" stroke-width="2"
        stroke-linecap="round" stroke-linejoin="round" />
</svg>
