<svg width="30" height="30" viewBox="0 0 30 30" fill="none" xmlns="http://www.w3.org/2000/svg">
    <path
        d="M23.37 9.95535L20.0838 13.046L23.2135 21.6527L20.8662 24L16.1912 17.1537L13.8243 19.3054V21.6527L11.477 24L10.0882 19.902L6 18.523L8.3473 16.1757H10.6946L13.0419 13.8284L6 9.1338L8.3473 6.7865L16.954 9.91623L20.0544 6.6398L19.986 6.6887C20.4269 6.24773 21.025 6 21.6486 6C22.2723 6 22.8703 6.24773 23.3113 6.6887C23.7523 7.12967 24 7.72775 24 8.35137C24 8.97499 23.7523 9.57307 23.3113 10.014L23.37 9.95535Z"
        stroke="#006885" stroke-width="2" stroke-linecap="round" stroke-linejoin="round" />
</svg>
