<svg width="23" height="17" viewBox="0 0 23 17" fill="none" xmlns="http://www.w3.org/2000/svg">
    <path d="M6 16H20" stroke="#006885" stroke-width="2" stroke-linecap="round"
        stroke-linejoin="round" />
    <path
        d="M1.76295 3.30769H3.39558L5.29399 5.61538H8.33145L7.14494 2.00962C7.10742 1.89407 7.09748 1.77116 7.11594 1.65097C7.1344 1.53078 7.18074 1.41674 7.25114 1.3182C7.32154 1.21967 7.41401 1.13945 7.52095 1.08414C7.6279 1.02883 7.74626 0.99999 7.86634 1H9.4705L13.647 5.61538H18.9625C19.7681 5.61538 20.5407 5.93956 21.1103 6.51659C21.68 7.09363 22 7.87626 22 8.69231V11H5.27501C4.62265 10.999 3.98795 10.7852 3.46484 10.3904C2.94172 9.99558 2.55799 9.44063 2.37044 8.80769L1.03206 4.29808C0.997937 4.18292 0.990935 4.06126 1.01162 3.94286C1.0323 3.82447 1.0801 3.71263 1.15116 3.61633C1.22223 3.52003 1.3146 3.44195 1.42084 3.38835C1.52709 3.33475 1.64426 3.30712 1.76295 3.30769V3.30769Z"
        stroke="#006885" stroke-width="2" stroke-linecap="round" stroke-linejoin="round" />
</svg>
