<svg width="28" height="28" viewBox="0 0 28 28" fill="none" xmlns="http://www.w3.org/2000/svg">
    <path
        d="M23.2031 5.15625H4.29688C3.82226 5.15625 3.4375 5.54101 3.4375 6.01562V21.4844C3.4375 21.959 3.82226 22.3438 4.29688 22.3438H23.2031C23.6777 22.3438 24.0625 21.959 24.0625 21.4844V6.01562C24.0625 5.54101 23.6777 5.15625 23.2031 5.15625Z"
        stroke="#6A6968" stroke-width="2" stroke-linecap="round" stroke-linejoin="round" />
    <path
        d="M3.4375 18.0469L8.84082 12.6436C8.92078 12.5624 9.0161 12.4979 9.12122 12.4539C9.22634 12.4099 9.33916 12.3872 9.45312 12.3872C9.56709 12.3872 9.67991 12.4099 9.78503 12.4539C9.89015 12.4979 9.98547 12.5624 10.0654 12.6436L14.8564 17.4346C14.9364 17.5158 15.0317 17.5803 15.1368 17.6243C15.242 17.6683 15.3548 17.691 15.4688 17.691C15.5827 17.691 15.6955 17.6683 15.8007 17.6243C15.9058 17.5803 16.0011 17.5158 16.0811 17.4346L18.2939 15.2217C18.3739 15.1405 18.4692 15.076 18.5743 15.032C18.6795 14.988 18.7923 14.9653 18.9062 14.9653C19.0202 14.9653 19.133 14.988 19.2382 15.032C19.3433 15.076 19.4386 15.1405 19.5186 15.2217L24.0625 19.7657"
        stroke="#6A6968" stroke-width="2" stroke-linecap="round" stroke-linejoin="round" />
    <path
        d="M16.7578 12.0312C17.4697 12.0312 18.0469 11.4541 18.0469 10.7422C18.0469 10.0303 17.4697 9.45312 16.7578 9.45312C16.0459 9.45312 15.4688 10.0303 15.4688 10.7422C15.4688 11.4541 16.0459 12.0312 16.7578 12.0312Z"
        fill="#6A6968" />
</svg>
