<svg width="127" height="19" viewBox="0 0 127 19" fill="none" xmlns="http://www.w3.org/2000/svg">
    <path
        d="M1.08993 3.23077H3.42226L6.13428 6.46154H10.4735L8.77849 1.41346C8.72488 1.2517 8.71068 1.07962 8.73706 0.911357C8.76343 0.743091 8.82962 0.583432 8.9302 0.445485C9.03078 0.307538 9.16288 0.195236 9.31565 0.117796C9.46842 0.0403557 9.63752 -1.40013e-05 9.80906 3.64268e-09H12.1007L18.0671 6.46154H25.6608C26.8116 6.46154 27.9153 6.91538 28.7291 7.72323C29.5428 8.53108 30 9.62676 30 10.7692V14H6.10716C5.17522 13.9986 4.2685 13.6993 3.52119 13.1466C2.77389 12.5938 2.2257 11.8169 1.95777 10.9308L0.0458035 4.61731C-0.00294725 4.45609 -0.0129497 4.28576 0.0165989 4.12001C0.0461475 3.95426 0.114424 3.79769 0.21595 3.66287C0.317476 3.52805 0.449423 3.41873 0.601203 3.34369C0.752983 3.26865 0.920369 3.22997 1.08993 3.23077Z"
        fill="white" />
    <line x1="4.37114e-08" y1="18.5" x2="127" y2="18.5" stroke="white" />
</svg>
