<svg width="28" height="28" viewBox="0 0 28 28" fill="none" xmlns="http://www.w3.org/2000/svg">
    <path
        d="M13.1377 7.66993L15.2646 5.54298C16.1652 4.7222 17.3473 4.27995 18.5655 4.30816C19.7836 4.33636 20.944 4.83283 21.8056 5.69441C22.6672 6.55599 23.1637 7.71642 23.1919 8.93455C23.2201 10.1527 22.7778 11.3348 21.957 12.2354L18.917 15.2647C18.4789 15.7044 17.9582 16.0534 17.3849 16.2915C16.8116 16.5296 16.1969 16.6521 15.5762 16.6521C14.9554 16.6521 14.3407 16.5296 13.7674 16.2915C13.1941 16.0534 12.6735 15.7044 12.2354 15.2647"
        stroke="#6A6968" stroke-width="2" stroke-linecap="round" stroke-linejoin="round" />
    <path
        d="M14.3623 19.8301L12.2354 21.9571C11.3348 22.7778 10.1527 23.2201 8.93455 23.1919C7.71642 23.1637 6.55599 22.6672 5.69441 21.8056C4.83283 20.944 4.33636 19.7836 4.30816 18.5655C4.27995 17.3474 4.7222 16.1652 5.54298 15.2647L8.58302 12.2354C9.02115 11.7956 9.5418 11.4467 10.1151 11.2086C10.6884 10.9705 11.3031 10.8479 11.9238 10.8479C12.5446 10.8479 13.1593 10.9705 13.7326 11.2086C14.3059 11.4467 14.8265 11.7956 15.2647 12.2354"
        stroke="#6A6968" stroke-width="2" stroke-linecap="round" stroke-linejoin="round" />
</svg>
