<svg width="20" height="19" viewBox="0 0 20 19" fill="none" xmlns="http://www.w3.org/2000/svg">
<path d="M3.125 9.125L1.875 6L4.375 6L5.625 7.25L8.125 7.25L6.875 1L9.375 1L12.5 7.25L16.25 7.25C16.7473 7.25 17.2242 7.44754 17.5758 7.79917C17.9275 8.15081 18.125 8.62772 18.125 9.125C18.125 9.62228 17.9275 10.0992 17.5758 10.4508C17.2242 10.8025 16.7473 11 16.25 11L12.5 11L9.375 17.25L6.875 17.25L8.125 11L5.625 11L4.375 12.25L1.875 12.25L3.125 9.125Z" fill="white" stroke="#006885" stroke-width="2" stroke-linecap="round" stroke-linejoin="round"/>
</svg>
