<svg width="125" height="19" viewBox="0 0 125 19" fill="none" xmlns="http://www.w3.org/2000/svg">
    <line x1="-8.74228e-08" y1="9" x2="125" y2="8.99999" stroke="#006885" stroke-width="2" />
    <path
        d="M55 9.125L53.75 6L56.25 6L57.5 7.25L60 7.25L58.75 1L61.25 1L64.375 7.25L68.125 7.25C68.6223 7.25 69.0992 7.44754 69.4508 7.79917C69.8025 8.15081 70 8.62772 70 9.125C70 9.62228 69.8025 10.0992 69.4508 10.4508C69.0992 10.8025 68.6223 11 68.125 11L64.375 11L61.25 17.25L58.75 17.25L60 11L57.5 11L56.25 12.25L53.75 12.25L55 9.125Z"
        fill="#E6F0F3" stroke="#006885" stroke-width="2" stroke-linecap="round"
        stroke-linejoin="round" />
</svg>
