<svg width="168" height="19" viewBox="0 0 168 19" fill="none" xmlns="http://www.w3.org/2000/svg">
<line x1="0.5" y1="9.00002" x2="167.5" y2="9" stroke="#006885" stroke-width="2"/>
<path d="M77.125 9.125L75.875 6L78.375 6L79.625 7.25L82.125 7.25L80.875 1L83.375 1L86.5 7.25L90.25 7.25C90.7473 7.25 91.2242 7.44754 91.5758 7.79917C91.9275 8.15081 92.125 8.62772 92.125 9.125C92.125 9.62228 91.9275 10.0992 91.5758 10.4508C91.2242 10.8025 90.7473 11 90.25 11L86.5 11L83.375 17.25L80.875 17.25L82.125 11L79.625 11L78.375 12.25L75.875 12.25L77.125 9.125Z" fill="white" stroke="#006885" stroke-width="2" stroke-linecap="round" stroke-linejoin="round"/>
</svg>
