<svg width="20" height="20" viewBox="0 0 20 20" fill="none" xmlns="http://www.w3.org/2000/svg">
<mask id="mask0_3047_71250" style="mask-type:alpha" maskUnits="userSpaceOnUse" x="0" y="0" width="20" height="20">
<rect width="20" height="20" fill="#D9D9D9"/>
</mask>
<g mask="url(#mask0_3047_71250)">
<path d="M9.99998 16.125C11.6944 14.5694 12.9514 13.1563 13.7708 11.8854C14.5903 10.6146 15 9.48611 15 8.5C15 6.98611 14.5173 5.74653 13.5521 4.78125C12.5868 3.81597 11.4028 3.33333 9.99998 3.33333C8.5972 3.33333 7.41317 3.81597 6.4479 4.78125C5.48262 5.74653 4.99998 6.98611 4.99998 8.5C4.99998 9.48611 5.4097 10.6146 6.22915 11.8854C7.04859 13.1563 8.30553 14.5694 9.99998 16.125ZM9.99998 18.3333C7.76387 16.4306 6.09373 14.6632 4.98956 13.0313C3.8854 11.3993 3.33331 9.88889 3.33331 8.5C3.33331 6.41667 4.00345 4.75695 5.34373 3.52083C6.68401 2.28472 8.23609 1.66667 9.99998 1.66667C11.7639 1.66667 13.316 2.28472 14.6562 3.52083C15.9965 4.75695 16.6666 6.41667 16.6666 8.5C16.6666 9.88889 16.1146 11.3993 15.0104 13.0313C13.9062 14.6632 12.2361 16.4306 9.99998 18.3333ZM7.49998 10.8333H9.16665V8.54167H10.8333V10.8333H12.5V6.875L9.99998 5.20833L7.49998 6.875V10.8333Z" fill="#838282"/>
</g>
</svg>
