<svg width="16" height="16" viewBox="0 0 16 16" fill="none" xmlns="http://www.w3.org/2000/svg">
<g clip-path="url(#clip0_3094_42626)">
<path d="M7.99992 9.33333C9.10659 9.33333 9.99325 8.44 9.99325 7.33333L9.99992 3.33333C9.99992 2.22666 9.10659 1.33333 7.99992 1.33333C6.89325 1.33333 5.99992 2.22666 5.99992 3.33333V7.33333C5.99992 8.44 6.89325 9.33333 7.99992 9.33333ZM11.5333 7.33333C11.5333 9.33333 9.83992 10.7333 7.99992 10.7333C6.15992 10.7333 4.46659 9.33333 4.46659 7.33333H3.33325C3.33325 9.60666 5.14659 11.4867 7.33325 11.8133V14H8.66659V11.8133C10.8533 11.4933 12.6666 9.61333 12.6666 7.33333H11.5333Z" fill="black" fill-opacity="0.54"/>
</g>
<defs>
<clipPath id="clip0_3094_42626">
<rect width="16" height="16" fill="white"/>
</clipPath>
</defs>
</svg>
