<svg width="20" height="20" viewBox="0 0 20 20" fill="none" xmlns="http://www.w3.org/2000/svg">
<path d="M17.0233 15.1464C16.366 13.978 15.2895 12.6546 13.5369 11.9023C12.5345 12.6035 11.3168 13.0164 10.004 13.0164C8.69058 13.0164 7.47287 12.6035 6.47047 11.9023C4.7179 12.6546 3.64134 13.978 2.98443 15.1464C2.11259 16.6961 2.79613 18.8889 4.30394 18.8889C5.81179 18.8889 10.0041 18.8889 10.0041 18.8889C10.0041 18.8889 14.196 18.8889 15.7038 18.8889C17.2116 18.8889 17.8952 16.6961 17.0233 15.1464Z" fill="#838282"/>
<path d="M10.0041 11.55C12.5785 11.55 14.6649 9.46296 14.6649 6.88886V5.77226C14.6649 3.1982 12.5785 1.11111 10.0041 1.11111C7.42923 1.11111 5.34253 3.1982 5.34253 5.7723V6.88889C5.34253 9.46296 7.42927 11.55 10.0041 11.55Z" fill="#838282"/>
</svg>
