<svg width="52" height="51" viewBox="0 0 52 51" fill="none" xmlns="http://www.w3.org/2000/svg">
    <rect x="0.737793" width="51" height="51" rx="25.5" fill="#E6F0F3" />
    <path d="M13.7378 36H31.7378" stroke="#006885" stroke-width="2" stroke-linecap="round"
        stroke-linejoin="round" />
    <path
        d="M12.8503 26.55L17.5628 30.9625C18.1912 31.5515 18.9929 31.922 19.8487 32.0189C20.7045 32.1157 21.5687 31.9337 22.3128 31.5L41.2378 20.5L38.9128 17.65C38.308 16.9113 37.4589 16.4133 36.519 16.246C35.5791 16.0786 34.6104 16.253 33.7878 16.7375L28.2378 20L20.7378 17.5L18.6753 18.3875C18.521 18.4536 18.3858 18.5575 18.2822 18.6897C18.1787 18.8218 18.11 18.9778 18.0826 19.1435C18.0552 19.3091 18.07 19.4789 18.1255 19.6374C18.181 19.7958 18.2755 19.9377 18.4003 20.05L22.2378 23.5L18.7378 25.5L15.2378 24L13.1378 24.9C12.985 24.9656 12.851 25.0683 12.7479 25.1988C12.6448 25.3292 12.5759 25.4833 12.5473 25.6472C12.5188 25.811 12.5315 25.9793 12.5844 26.137C12.6373 26.2946 12.7287 26.4366 12.8503 26.55V26.55Z"
        stroke="#006885" stroke-width="2" stroke-linecap="round" stroke-linejoin="round" />
</svg>
