<svg width="28" height="28" viewBox="0 0 28 28" fill="none" xmlns="http://www.w3.org/2000/svg">
    <path
        d="M23.591 13.0001L5.44468 2.83642C5.29183 2.75198 5.11688 2.7161 4.94313 2.73355C4.76938 2.75101 4.60507 2.82098 4.47207 2.93415C4.33907 3.04731 4.2437 3.1983 4.19865 3.36702C4.1536 3.53573 4.16101 3.71417 4.21989 3.87857L7.63642 13.462C7.71169 13.6481 7.71169 13.8561 7.63642 14.0422L4.21989 23.6257C4.16101 23.7901 4.1536 23.9685 4.19865 24.1372C4.2437 24.3059 4.33907 24.4569 4.47207 24.5701C4.60507 24.6833 4.76938 24.7532 4.94313 24.7707C5.11688 24.7882 5.29183 24.7523 5.44468 24.6678L23.591 14.5042C23.7253 14.4299 23.8373 14.3209 23.9153 14.1886C23.9932 14.0564 24.0344 13.9057 24.0344 13.7521C24.0344 13.5986 23.9932 13.4479 23.9153 13.3156C23.8373 13.1833 23.7253 13.0744 23.591 13.0001Z"
        fill="#006885" />
    <path d="M7.7439 13.7522H14.6199" stroke="white" stroke-width="1.71901" stroke-linecap="round"
        stroke-linejoin="round" />
</svg>
