<svg width="30" height="30" viewBox="0 0 30 30" fill="none" xmlns="http://www.w3.org/2000/svg">
<g clip-path="url(#clip0_459_2460)">
<path d="M29.5809 1.02924C29.0208 0.087784 27.6947 -0.00837067 27.0045 0.842203L15.4883 15.0402C15.2064 15.3876 14.6707 15.3685 14.4141 15.0023L11.654 11.0606C10.7148 9.71939 8.75977 9.63311 7.70602 10.8858C6.97927 11.7498 6.92427 12.9942 7.57167 13.9189L13.2214 21.9873C13.909 22.9693 15.3642 22.9677 16.0494 21.9837L17.6712 19.6556L29.5173 2.73764C29.8726 2.23019 29.8973 1.56172 29.5809 1.02924Z" fill="#2AC769"/>
<path d="M14.9834 29.8015C6.81256 29.8015 0.165039 23.154 0.165039 14.9832C0.165039 6.81231 6.81256 0.164795 14.9834 0.164795C16.9829 0.164795 18.9241 0.556658 20.752 1.32985C21.4218 1.61337 21.7353 2.38623 21.4518 3.05602C21.1689 3.72614 20.3957 4.03963 19.7256 3.75611C18.2243 3.12122 16.6286 2.79917 14.9834 2.79917C8.26508 2.79917 2.79941 8.26484 2.79941 14.9832C2.79941 21.7015 8.26508 27.1671 14.9834 27.1671C21.7017 27.1671 27.1674 21.7015 27.1674 14.9832C27.1674 13.9136 27.0291 12.8529 26.7561 11.8308C26.5684 11.1281 26.9859 10.4059 27.6887 10.2182C28.391 10.0302 29.1132 10.4481 29.3009 11.1511C29.6332 12.3949 29.8018 13.6841 29.8018 14.9832C29.8018 23.154 23.1542 29.8015 14.9834 29.8015Z" fill="#2AC769"/>
</g>
<defs>
<clipPath id="clip0_459_2460">
<rect width="30" height="30" fill="white"/>
</clipPath>
</defs>
</svg>
