<svg width="46" height="28" viewBox="0 0 46 28" fill="none" xmlns="http://www.w3.org/2000/svg">
    <path
        d="M22.7756 24.6634C22.3756 24.8734 19.5356 27.2934 13.8756 27.2934C9.10557 27.2934 4.01557 24.8634 2.41557 24.9134C1.85557 24.8934 1.39557 25.0034 1.04557 25.1634C0.37557 25.4434 -0.054431 25.0034 0.00556896 24.6234C0.065569 24.2434 0.615569 23.5434 1.00557 23.0434C1.48557 22.4134 2.24557 21.7234 3.05557 21.1734C5.31557 19.6334 7.40557 19.6034 8.33557 19.7634C8.47557 19.7934 8.88557 19.8034 9.52557 20.4334C11.0656 21.9134 13.8456 23.7734 15.9856 24.1534C16.2156 24.1834 17.1856 24.2734 17.1956 24.0034C17.1956 23.8334 16.9356 23.7734 16.8456 23.7534C13.4156 22.9734 11.4356 21.3034 9.54557 19.5734C8.00557 18.1734 6.83557 16.4334 5.95557 14.7334C5.25557 13.3834 4.28557 10.7234 2.50557 9.83343C2.10557 9.64343 2.09557 8.91343 2.92557 8.72343C3.50557 8.58343 7.00557 8.25343 11.1756 10.5034C12.8156 11.3934 13.3456 12.3834 13.4056 12.6334C13.4056 12.6334 13.5056 12.6934 13.5256 13.1134C13.7456 19.1234 16.3956 21.1434 17.6756 22.0734C18.1956 22.4734 18.8456 22.6434 19.0156 22.4634C19.0956 22.3734 18.8856 22.1834 18.7456 22.0934C15.0556 19.6634 14.3456 16.4934 14.1456 13.0934C13.9556 9.71343 15.3756 6.77343 16.2756 4.37343C16.4056 4.03343 16.9256 2.49343 16.5356 1.17343C16.2756 0.283433 16.5556 0.0734333 17.0356 0.0034333C17.5356 -0.0665667 18.2856 0.953434 18.5456 1.27343C18.7456 1.51343 19.4156 2.28343 20.4056 4.27343C22.3756 8.18343 22.3956 12.5134 22.3956 13.0134C22.3556 15.8334 21.8456 16.0034 20.4956 16.6534C19.3756 17.0934 18.7556 17.9834 18.7556 18.8634C18.7556 19.7434 19.4156 20.4134 20.6256 20.9234C20.7056 20.9434 20.8456 20.9934 20.9156 21.0034C21.4456 21.1334 21.8956 21.0134 21.8956 20.8134C21.8956 20.6334 21.3656 20.5634 21.3656 20.5634C20.1856 20.2734 19.3656 19.6034 19.3656 18.8534C19.3656 17.8234 20.8156 16.7734 22.6656 16.7734H22.8656C24.7156 16.7734 26.1556 17.8134 26.1556 18.8534C26.1556 19.6134 25.3356 20.2734 24.1656 20.5634C24.1656 20.5634 23.6356 20.6334 23.6356 20.8134C23.6356 21.0134 24.0756 21.1334 24.6056 21.0034C24.6756 20.9934 24.8056 20.9434 24.8956 20.9134C26.1056 20.4034 26.7656 19.7334 26.7656 18.8534C26.7656 17.9734 26.1456 17.0934 25.0256 16.6534C23.6856 16.0034 23.1756 15.8234 23.1356 13.0134C23.1356 12.5234 23.1556 8.19343 25.1156 4.28343C26.1156 2.30343 26.7756 1.52343 26.9856 1.28343C27.2456 0.963432 27.9956 -0.0565665 28.4956 0.0134335C28.9856 0.0934335 29.2556 0.293434 28.9956 1.18343C28.6056 2.49343 29.1256 4.04343 29.2556 4.38343C30.1456 6.78343 31.5856 9.72343 31.3856 13.1034C31.1956 16.5034 30.4756 19.6734 26.7856 22.0934C26.6356 22.1834 26.4456 22.3734 26.5256 22.4634C26.6956 22.6434 27.3456 22.4634 27.8656 22.0734C29.1456 21.1434 31.7856 19.1234 32.0056 13.1134C32.0356 12.6934 32.1356 12.6334 32.1356 12.6334C32.1956 12.3934 32.7156 11.4034 34.3556 10.5134C38.5356 8.25343 42.0356 8.59343 42.6156 8.72343C43.4456 8.92343 43.4256 9.64343 43.0356 9.83343C41.2556 10.7334 40.2856 13.3934 39.5856 14.7434C38.7056 16.4434 37.5356 18.1834 35.9956 19.5834C34.1056 21.3134 32.1256 22.9834 28.6856 23.7634C28.5956 23.7834 28.3256 23.8434 28.3356 24.0134C28.3456 24.2834 29.3156 24.1934 29.5556 24.1634C31.6856 23.7834 34.4556 21.9134 36.0156 20.4434C36.6556 19.8234 37.0556 19.8034 37.2056 19.7734C38.1256 19.6134 40.2156 19.6434 42.4856 21.1834C43.2956 21.7234 44.0556 22.4234 44.5356 23.0534C44.9356 23.5634 45.4856 24.2634 45.5456 24.6434C45.6056 25.0134 45.1656 25.4534 44.5056 25.1834C44.1556 25.0334 43.6956 24.9134 43.1356 24.9334C41.5356 24.8834 36.4456 27.3134 31.6756 27.3134C26.0156 27.3134 23.1756 24.9034 22.7656 24.6834L22.7756 24.6634Z"
        fill="#D09B2C" />
</svg>
