<svg width="30" height="29" viewBox="0 0 30 29" fill="none" xmlns="http://www.w3.org/2000/svg">
<path d="M15.0001 28.7401H28.6174C29.6554 28.7401 30.3221 27.6378 29.8404 26.7184L16.2231 0.739751C15.7061 -0.246583 14.2944 -0.246583 13.7774 0.739751L0.159722 26.7188C-0.322278 27.6381 0.344722 28.7404 1.38272 28.7404L15.0001 28.7401Z" fill="#F6A609"/>
<path d="M15.0001 20.7338C14.4821 20.7338 14.0561 20.3262 14.0334 19.8085L13.1411 11.1985C13.0601 10.1168 13.9154 9.19482 15.0001 9.19482C16.0847 9.19482 16.9404 10.1172 16.8591 11.1985L15.9667 19.8085C15.9441 20.3258 15.5181 20.7338 15.0001 20.7338Z" fill="white"/>
<path d="M14.999 25.5874C15.8507 25.5874 16.541 24.897 16.541 24.0454C16.541 23.1938 15.8507 22.5034 14.999 22.5034C14.1474 22.5034 13.457 23.1938 13.457 24.0454C13.457 24.897 14.1474 25.5874 14.999 25.5874Z" fill="white"/>
</svg>
